PathFileType	4	(X/Y/Z)	C:/Users/beibeiliu/ov580/test_trc/User2\sequence.18_training_dense_left.trc
DataRate	CameraRate	NumFrames	NumMarkers	Units	OrigDataRate	OrigDataStartFrame	OrigNumFrames
120	120	7	19	mm	120	322	429
Frame#	Time	ThumbCMC			ThumbMCP			ThumbIP			ThumbTip			IndexMCP			IndexPIP			IndexTip			MiddleMCP			MiddlePIP			MiddleTip			RingMCP			RingPIP			RingTip			PinkyMCP			PinkyPIP			PinkyTip			BackHand1			BackHand2			BackHand3	
		X0	Y0	Z0	X1	Y1	Z1	X2	Y2	Z2	X3	Y3	Z3	X4	Y4	Z4	X5	Y5	Z5	X6	Y6	Z6	X7	Y7	Z7	X8	Y8	Z8	X9	Y9	Z9	X10	Y10	Z10	X11	Y11	Z11	X12	Y12	Z12	X13	Y13	Z13	X14	Y14	Z14	X15	Y15	Z15	X16	Y16	Z16	X17	Y17	Z17	X18	Y18	Z18	
321	2.675	-137.724	-23.5882	54.3491	-116.262	-36.8162	31.1606	-109.548	-49.3638	-0.153326	-112.89	-63.2984	-25.985	-145.82	-42.4477	-25.5806	-133.411	-68.2143	-26.5571	-135.556	-61.2468	12.8115	-162.194	-51.292	-30.7363	-152.586	-82.3669	-26.6382	-150.774	-76.6247	14.9259	-182.922	-57.8906	-24.6855	-167.878	-86.9763	-23.0455	-164.425	-80.1364	12.8864	-201.927	-60.9735	-7.03499	-186.556	-90.4792	-18.9692	-172.274	-94.7394	12.16	-200.603	-25.3419	27.6396	-202.566	-12.477	59.7897	-171.187	-4.72383	42.8818	
322	2.68333	-135.385	-21.1826	61.1198	-117.1	-35.7317	31.8343	-105.364	-50.1615	3.11844	-112.906	-65.9791	-21.2067	-142.631	-45.198	-23.6528	-133.108	-71.2577	-21.4263	-135.665	-63.3302	14.3186	-157.677	-52.6104	-27.3317	-149.069	-85.4495	-21.6954	-144.489	-74.5445	20.2489	-181.51	-64.4685	-21.7249	-164.826	-90.4021	-18.9702	-159.647	-82.3937	14.9268	-197.499	-66.4262	-8.2969	-181.797	-95.9816	-13.0447	-167.846	-95.2516	13.5608	-196.28	-26.2948	29.5327	-202.491	-15.7643	59.0221	-170.747	-7.39637	39.3665	
323	2.69167	-133.501	-16.1892	58.3537	-115.942	-31.4787	36.8932	-106.316	-47.7841	9.21585	-107.349	-64.6261	-14.0577	-139.457	-43.8426	-20.0761	-123.429	-69.779	-17.4547	-130.08	-59.0469	20.746	-156.061	-55.297	-23.7155	-139.364	-85.4405	-15.5394	-140.53	-71.6812	24.7984	-173.232	-68.2864	-21.0054	-159.88	-94.3607	-12.9958	-157.012	-82.5284	23.2906	-193.516	-70.9649	-4.03428	-173.768	-98.031	-8.94768	-161.555	-97.2103	23.358	-201.579	-28.3186	30.8403	-202.997	-17.3473	57.2587	-167.813	-3.84161	40.6078	
324	2.7	-134.965	-11.6087	58.9152	-117.504	-26.7489	37.9814	-103.155	-42.6463	7.55669	-102.437	-60.3529	-10.4463	-139.016	-42.8848	-16.6265	-123.264	-70.2791	-11.9198	-125.226	-58.7085	23.1355	-155.274	-56.1611	-19.7503	-137.46	-87.0595	-11.9787	-138.385	-75.1421	27.1757	-168.259	-70.4014	-16.3439	-151.396	-93.5674	-9.51305	-151.039	-81.2544	27.9425	-189.312	-73.4284	1.23177	-167.345	-102.107	-1.71465	-153.619	-94.065	27.2365	-200.705	-31.069	29.3721	-205.556	-17.9087	59.3117	-173.98	-3.31568	42.0144	
325	2.70833	-136.016	-5.7041	59.1899	-113.554	-18.9869	37.0068	-102.964	-37.3369	7.24618	-100.731	-56.015	-8.96619	-137.159	-42.6384	-13.2382	-117.925	-67.8123	-7.72938	-120.754	-58.8153	26.4086	-150.445	-60.0791	-17.6954	-131.97	-86.4929	-5.7399	-130.752	-71.5902	31.9874	-168.288	-73.1132	-10.8851	-145.636	-96.7326	0.425109	-144.218	-80.2712	32.0115	-184.673	-77.7188	3.86088	-157.727	-102.108	5.02677	-148.265	-93.4353	34.9467	-197.219	-32.6869	29.3675	-204.953	-20.3797	57.4108	-171.82	-2.9403	41.5165	
326	2.71667	-140.085	-4.08422	61.8077	-115.004	-13.9767	38.4656	-102.336	-30.977	15.2731	-99.317	-51.1203	-6.64359	-134.72	-41.405	-11.7371	-112.743	-67.6007	-3.06368	-112.904	-56.0256	30.5628	-147.558	-58.3704	-13.4509	-125.992	-85.8099	1.8085	-123.318	-71.5064	36.0798	-160.804	-72.8386	-7.48024	-140.199	-93.7713	4.65239	-138.397	-76.0342	36.7481	-176.126	-81.9128	6.19553	-150.984	-102.55	14.1759	-140.085	-92.1915	41.2693	-197.823	-34.9994	29.571	-206.14	-17.8973	56.9774	-175.435	-2.4748	41.5981	
327	2.725	-140.397	0.90413	63.4877	-113.684	-6.33257	43.0185	-101.953	-26.8583	14.4085	-101.04	-47.1277	-1.88356	-131.966	-36.8978	-8.42566	-111.096	-63.8606	-2.10656	-106.467	-58.2215	31.4365	-139.785	-56.6199	-11.7144	-119.169	-81.3447	4.73302	-119.943	-68.3459	41.2221	-153.628	-74.4839	-3.65164	-132.225	-91.3194	9.75725	-134.9	-71.6583	43.8924	-168.735	-79.8328	9.945	-145.165	-100.303	18.7364	-137.97	-86.0268	50.2041	-194.807	-33.7871	32.8925	-205.144	-17.4668	61.0253	-174.917	-0.852932	42.4567	
